<svg width="44" height="44" viewBox="0 0 44 44" fill="none" xmlns="http://www.w3.org/2000/svg">
<rect width="44" height="44" rx="8" fill="white"/>
<path d="M29.3361 22.567C29.3071 19.344 31.9751 17.776 32.0971 17.703C30.5861 15.5 28.2441 15.199 27.4211 15.175C25.4541 14.968 23.5461 16.352 22.5441 16.352C21.5221 16.352 19.9791 15.195 18.3161 15.229C16.1761 15.262 14.1741 16.501 13.0761 18.425C10.8101 22.348 12.5001 28.113 14.6711 31.284C15.7571 32.837 17.0261 34.571 18.6871 34.51C20.3121 34.443 20.9191 33.474 22.8801 33.474C24.8231 33.474 25.3931 34.51 27.0871 34.471C28.8311 34.443 29.9291 32.911 30.9771 31.344C32.2321 29.564 32.7361 27.811 32.7561 27.721C32.7151 27.707 29.3691 26.43 29.3361 22.567Z" fill="black"/>
<path d="M26.136 13.089C27.01 11.996 27.608 10.509 27.442 9C26.177 9.056 24.595 9.875 23.684 10.944C22.878 11.886 22.158 13.43 22.344 14.882C23.765 14.988 25.224 14.165 26.136 13.089Z" fill="black"/>
</svg>
