<svg width="44" height="44" viewBox="0 0 44 44" fill="none" xmlns="http://www.w3.org/2000/svg">
<rect width="44" height="44" rx="8" fill="url(#paint0_linear_506_40667)"/>
<path fill-rule="evenodd" clip-rule="evenodd" d="M19.3037 25.5191H21.0702L20.1839 23.4581L19.3037 25.5191ZM18.8688 26.5577L18.3447 27.7569H17.1515L19.6888 22.0004H20.7201L23.2472 27.7569H22.0222L21.5048 26.5577H18.8688ZM38.069 27.7527H39.2222V22H38.069V27.7527ZM33.4791 25.2814H35.6048V24.2325H33.4791V23.0535H36.565V22.0042H32.3262V27.7566H36.676V26.7073H33.4791V25.2814ZM28.897 25.9611L27.5895 22H26.6354L25.328 25.9611L24.0556 22.0032H22.8115L24.8195 27.7601H25.7867L27.0962 23.9786L28.4058 27.7601H29.3814L31.3841 22.0032H30.1722L28.897 25.9611ZM15.391 25.2974C15.391 26.2338 14.926 26.7342 14.0815 26.7342C13.2324 26.7342 12.7649 26.2193 12.7649 25.2574V22.0039H11.5961V25.2974C11.5961 26.9174 12.4965 27.8464 14.0656 27.8464C15.6503 27.8464 16.5588 26.8997 16.5588 25.2493V22.0004H15.391V25.2974ZM8.80766 22.0004H9.97573V27.7605H8.80766V25.4211H6.16878V27.7605H5V22.0004H6.16878V24.3238H8.80766V22.0004Z" fill="white"/>
<path fill-rule="evenodd" clip-rule="evenodd" d="M22.3333 14.6667C18.2893 14.6667 15 11.377 15 7.33337H16.0358C16.0358 10.8055 18.8612 13.6305 22.3333 13.6305C25.8055 13.6305 28.6308 10.8055 28.6308 7.33337H29.6667C29.6667 11.377 26.377 14.6667 22.3333 14.6667Z" fill="white"/>
<defs>
<linearGradient id="paint0_linear_506_40667" x1="22" y1="0" x2="22" y2="44" gradientUnits="userSpaceOnUse">
<stop stop-color="#FB6361"/>
<stop offset="1" stop-color="#ED3E45"/>
</linearGradient>
</defs>
</svg>
