<svg width="44" height="44" viewBox="0 0 44 44" fill="none" xmlns="http://www.w3.org/2000/svg">
<g clip-path="url(#clip0_506_40629)">
<rect width="44" height="44" rx="8" fill="black"/>
<path d="M44 22.2357V21.7643C34.2571 21.45 29.81 21.2143 26.2429 17.7571C22.7857 14.19 22.5343 9.74286 22.2357 0H21.7643C21.45 9.74286 21.2143 14.19 17.7571 17.7571C14.19 21.2143 9.74286 21.4657 0 21.7643V22.2357C9.74286 22.55 14.19 22.7857 17.7571 26.2429C21.2143 29.81 21.4657 34.2571 21.7643 44H22.2357C22.55 34.2571 22.7857 29.81 26.2429 26.2429C29.81 22.7857 34.2571 22.5343 44 22.2357Z" fill="white"/>
</g>
<defs>
<clipPath id="clip0_506_40629">
<rect width="44" height="44" rx="8" fill="white"/>
</clipPath>
</defs>
</svg>
