<svg width="44" height="44" viewBox="0 0 44 44" fill="none" xmlns="http://www.w3.org/2000/svg">
<g clip-path="url(#clip0_506_40752)">
<rect width="44" height="44" rx="8" fill="black"/>
<circle cx="0.11224" cy="22.1122" r="32.6633" fill="#E1FF39"/>
<path d="M67.9297 8H15.7627C8.16175 8 2 14.268 2 22C2 29.732 8.16175 36 15.7627 36H67.9297C75.5306 36 81.6923 29.732 81.6923 22C81.6923 14.268 75.5306 8 67.9297 8Z" fill="black"/>
<path d="M59.9475 10.1036H15.6206C9.16198 10.1036 3.92627 15.4298 3.92627 22C3.92627 28.5702 9.16198 33.8964 15.6206 33.8964H59.9475C66.406 33.8964 71.6417 28.5702 71.6417 22C71.6417 15.4298 66.406 10.1036 59.9475 10.1036Z" fill="#E1FF39"/>
<path d="M23.9736 22C23.9736 17.307 20.2338 13.5026 15.6205 13.5026C11.0072 13.5026 7.26746 17.307 7.26746 22C7.26746 26.693 11.0072 30.4974 15.6205 30.4974C20.2338 30.4974 23.9736 26.693 23.9736 22Z" fill="#CAE62D"/>
<path d="M18.0151 21.8641H19.9975V25.7389C19.4852 26.1241 18.906 26.4413 18.2155 26.6453C17.5473 26.8492 16.8568 26.9625 16.1885 26.9625C15.2084 26.9625 14.3397 26.7586 13.5601 26.328C12.7805 25.8975 12.179 25.3083 11.7336 24.5606C11.2881 23.8128 11.0653 22.9517 11.0653 22C11.0653 21.0483 11.2881 20.2099 11.7336 19.4395C12.179 18.6917 12.8027 18.1025 13.5824 17.672C14.362 17.2415 15.253 17.0375 16.2331 17.0375C17.0572 17.0375 17.8146 17.1735 18.4828 17.4681C19.1511 17.74 19.7302 18.1705 20.1757 18.6917L18.7724 20.006C18.1042 19.2809 17.28 18.9183 16.3444 18.9183C15.743 18.9183 15.2084 19.0543 14.7407 19.3035C14.2729 19.5528 13.9165 19.9153 13.6492 20.3912C13.3819 20.867 13.2482 21.3882 13.2482 22C13.2482 22.5892 13.3819 23.1103 13.6492 23.5862C13.9165 24.0621 14.2729 24.4246 14.7407 24.6739C15.2084 24.9231 15.7207 25.0591 16.3222 25.0591C16.9459 25.0591 17.5027 24.9231 18.0151 24.6512V21.8641Z" fill="black"/>
<path d="M46.3153 22C46.3153 17.307 42.5755 13.5026 37.9622 13.5026C33.3489 13.5026 29.6091 17.307 29.6091 22C29.6091 26.693 33.3489 30.4974 37.9622 30.4974C42.5755 30.4974 46.3153 26.693 46.3153 22Z" fill="#CAE62D"/>
<path d="M42.2835 17.2188V26.7812H40.5015L35.8015 20.9803V26.7812H33.6409V17.2188H35.4451L40.1229 23.0197V17.2188H42.2835Z" fill="black"/>
<path d="M23.6453 25.7389C22.884 24.9911 22.4674 23.9063 22.4674 22.5014V17.1282H24.6418V22.4079C24.6418 24.13 25.4141 24.9684 26.8247 24.9684C27.5188 24.9684 28.0338 24.7645 28.3922 24.3566C28.7504 23.9488 28.9854 23.2916 28.9854 22.4079V17.1282H31.2129V22.4079C31.2129 23.8128 30.7208 24.9911 29.982 25.7389C29.2206 26.4866 28.1684 26.8719 26.8247 26.8719C25.4813 26.8719 24.4066 26.4866 23.6453 25.7389Z" fill="black"/>
<path d="M23.6453 25.7388C22.884 24.991 22.4674 23.9063 22.4674 22.5013V17.1281H24.6418V22.4078C24.6418 24.13 25.4141 24.9684 26.8247 24.9684C27.5188 24.9684 28.0338 24.7644 28.3922 24.3566C28.7504 23.9487 28.9854 23.2916 28.9854 22.4078V17.1281H31.2129V22.4078C31.2129 23.8127 30.7208 24.991 29.982 25.7388C29.2206 26.4866 28.1684 26.8718 26.8247 26.8718C25.4813 26.8718 24.4066 26.4866 23.6453 25.7388Z" fill="black"/>
</g>
<defs>
<clipPath id="clip0_506_40752">
<rect width="44" height="44" rx="8" fill="white"/>
</clipPath>
</defs>
</svg>
