<svg width="44" height="44" viewBox="0 0 44 44" fill="none" xmlns="http://www.w3.org/2000/svg">
<rect width="44" height="44" rx="8" fill="url(#paint0_radial_506_40499)"/>
<rect width="44" height="44" rx="8" fill="url(#paint1_radial_506_40499)"/>
<path d="M22.001 10C18.742 10 18.333 10.0143 17.053 10.0725C15.7755 10.131 14.9035 10.3333 14.1405 10.63C13.3513 10.9365 12.6817 11.3465 12.0148 12.0138C11.3472 12.6808 10.9372 13.3502 10.6297 14.1392C10.3322 14.9025 10.1297 15.7748 10.0722 17.0518C10.015 18.3318 10 18.741 10 22C10 25.259 10.0145 25.6668 10.0725 26.9468C10.1313 28.2243 10.3335 29.0962 10.63 29.8592C10.9368 30.6485 11.3467 31.318 12.014 31.985C12.6807 32.6525 13.3502 33.0635 14.139 33.37C14.9025 33.6668 15.7747 33.869 17.052 33.9275C18.332 33.9857 18.7408 34 21.9995 34C25.2588 34 25.6665 33.9857 26.9465 33.9275C28.224 33.869 29.097 33.6668 29.8605 33.37C30.6495 33.0635 31.318 32.6525 31.9848 31.985C32.6523 31.318 33.0622 30.6485 33.3697 29.8595C33.6647 29.0963 33.8672 28.224 33.9272 26.947C33.9847 25.667 33.9998 25.259 33.9998 22C33.9998 18.741 33.9847 18.332 33.9272 17.052C33.8672 15.7745 33.6647 14.9025 33.3697 14.1395C33.0622 13.3502 32.6523 12.6808 31.9848 12.0138C31.3173 11.3463 30.6498 10.9363 29.8598 10.63C29.0948 10.3333 28.2222 10.131 26.9447 10.0725C25.6647 10.0143 25.2572 10 21.9972 10H22.001ZM20.9245 12.1625C21.244 12.162 21.6005 12.1625 22.001 12.1625C25.205 12.1625 25.5848 12.174 26.85 12.2315C28.02 12.285 28.655 12.4805 29.078 12.6448C29.638 12.8623 30.0373 13.1222 30.457 13.5422C30.877 13.9622 31.137 14.3622 31.355 14.9222C31.5192 15.3447 31.715 15.9797 31.7682 17.1497C31.8257 18.4147 31.8382 18.7947 31.8382 21.9972C31.8382 25.1997 31.8257 25.5797 31.7682 26.8447C31.7147 28.0147 31.5192 28.6498 31.355 29.0723C31.1375 29.6323 30.877 30.031 30.457 30.4508C30.037 30.8708 29.6382 31.1307 29.078 31.3482C28.6555 31.5132 28.02 31.7082 26.85 31.7617C25.585 31.8192 25.205 31.8318 22.001 31.8318C18.7967 31.8318 18.417 31.8192 17.152 31.7617C15.982 31.7077 15.347 31.5122 14.9237 31.348C14.3637 31.1305 13.9637 30.8705 13.5437 30.4505C13.1237 30.0305 12.8638 29.6315 12.6458 29.0713C12.4815 28.6488 12.2858 28.0137 12.2325 26.8438C12.175 25.5788 12.1635 25.1987 12.1635 21.9942C12.1635 18.7897 12.175 18.4118 12.2325 17.1468C12.286 15.9768 12.4815 15.3417 12.6458 14.9187C12.8633 14.3587 13.1237 13.9587 13.5437 13.5387C13.9637 13.1187 14.3637 12.8587 14.9237 12.6407C15.3467 12.4757 15.982 12.2808 17.152 12.227C18.259 12.177 18.688 12.162 20.9245 12.1595V12.1625ZM28.4065 14.155C27.6115 14.155 26.9665 14.7992 26.9665 15.5945C26.9665 16.3895 27.6115 17.0345 28.4065 17.0345C29.2015 17.0345 29.8465 16.3895 29.8465 15.5945C29.8465 14.7995 29.2015 14.1545 28.4065 14.1545V14.155ZM22.001 15.8375C18.5977 15.8375 15.8385 18.5968 15.8385 22C15.8385 25.4032 18.5977 28.1612 22.001 28.1612C25.4042 28.1612 28.1625 25.4032 28.1625 22C28.1625 18.5968 25.4042 15.8375 22.001 15.8375ZM22.001 18C24.21 18 26.001 19.7908 26.001 22C26.001 24.209 24.21 26 22.001 26C19.7917 26 18.001 24.209 18.001 22C18.001 19.7908 19.7917 18 22.001 18Z" fill="white"/>
<defs>
<radialGradient id="paint0_radial_506_40499" cx="0" cy="0" r="1" gradientUnits="userSpaceOnUse" gradientTransform="translate(11.6876 47.3889) rotate(-90) scale(43.6073 40.5582)">
<stop stop-color="#FFDD55"/>
<stop offset="0.1" stop-color="#FFDD55"/>
<stop offset="0.5" stop-color="#FF543E"/>
<stop offset="1" stop-color="#C837AB"/>
</radialGradient>
<radialGradient id="paint1_radial_506_40499" cx="0" cy="0" r="1" gradientUnits="userSpaceOnUse" gradientTransform="translate(-7.37023 3.16969) rotate(78.6806) scale(19.4926 80.3494)">
<stop stop-color="#3771C8"/>
<stop offset="0.128" stop-color="#3771C8"/>
<stop offset="1" stop-color="#6600FF" stop-opacity="0"/>
</radialGradient>
</defs>
</svg>
