<svg width="44" height="44" viewBox="0 0 44 44" fill="none" xmlns="http://www.w3.org/2000/svg">
<rect width="44" height="44" rx="8" fill="white"/>
<path fill-rule="evenodd" clip-rule="evenodd" d="M14.4901 13.1716C14.4421 13.067 14.3376 13 14.2225 13H10.2948C10.0802 13 9.93765 13.2223 10.0272 13.4173L18.0283 30.8478C18.0763 30.9523 18.1808 31.0193 18.2959 31.0193H22.2236C22.4382 31.0193 22.5807 30.7971 22.4912 30.602L14.4901 13.1716ZM22.9526 13.1712C22.9045 13.0669 22.8001 13 22.6851 13H22.6828H18.2795C18.1756 13 18.0795 13.0554 18.0275 13.1454L17.1362 14.6872C17.0228 14.8836 17.1644 15.1291 17.3912 15.1291H19.0723C19.1872 15.1291 19.2916 15.1959 19.3397 15.3003L26.5053 30.848C26.5535 30.9524 26.6579 31.0193 26.7729 31.0193H30.7184C30.9332 31.0193 31.0758 30.7967 30.986 30.6016L22.9526 13.1712ZM30.8646 19.1795C32.567 19.1795 33.9469 17.7962 33.9469 16.0898C33.9469 14.3833 32.567 13 30.8646 13C29.1624 13 27.7825 14.3833 27.7825 16.0898C27.7825 17.7962 29.1624 19.1795 30.8646 19.1795Z" fill="black"/>
</svg>
