<svg width="44" height="44" viewBox="0 0 44 44" fill="none" xmlns="http://www.w3.org/2000/svg">
<rect width="44" height="44" rx="8" fill="#F7931E"/>
<path d="M22.0905 10C18.6565 10 15.8727 12.7845 15.8727 16.2193C15.8727 19.6541 18.6565 22.4388 22.0905 22.4388C25.5246 22.4388 28.3084 19.6541 28.3084 16.2193C28.3084 12.7845 25.5246 10 22.0905 10ZM22.0905 18.7903C20.671 18.7903 19.5202 17.6392 19.5202 16.2193C19.5202 14.7995 20.671 13.6484 22.0905 13.6484C23.5101 13.6484 24.6609 14.7995 24.6609 16.2193C24.6609 17.6392 23.5101 18.7903 22.0905 18.7903Z" fill="white"/>
<path d="M24.2857 27.3875C26.7749 26.8802 28.2666 25.7011 28.3455 25.6379C29.074 25.0536 29.191 23.9893 28.6068 23.2606C28.0227 22.5321 26.9588 22.415 26.2302 22.9992C26.2148 23.0117 24.6238 24.2324 22.0061 24.2342C19.3884 24.2324 17.7638 23.0117 17.7484 22.9992C17.0198 22.415 15.9558 22.5321 15.3718 23.2606C14.7876 23.9893 14.9046 25.0536 15.633 25.6379C15.713 25.702 17.2663 26.9118 19.8253 27.4071L16.2588 31.1352C15.6107 31.8075 15.6302 32.8781 16.3023 33.5263C16.6304 33.8427 17.0533 34 17.4757 34C17.9187 34 18.3612 33.8269 18.6929 33.4827L22.0061 29.9525L25.654 33.5056C26.315 34.1656 27.3853 34.1646 28.045 33.5037C28.7047 32.8428 28.7039 31.7721 28.0431 31.1123L24.2857 27.3875Z" fill="white"/>
</svg>
