<svg width="44" height="44" viewBox="0 0 44 44" fill="none" xmlns="http://www.w3.org/2000/svg">
<rect width="44" height="44" rx="8" fill="white"/>
<path d="M22.1376 21.4754L11.0718 32.0328C11.4311 33.1475 12.5808 34 13.946 34C14.5209 34 15.0239 33.8688 15.455 33.6066L27.958 27.1147L22.1376 21.4754Z" fill="#EA4335"/>
<path d="M33.3473 19.6394L27.958 16.8197L21.9221 21.6722L28.0299 27.1148L33.4191 24.3607C34.3533 23.9017 35 22.9836 35 22C34.9281 21.0164 34.2814 20.0984 33.3473 19.6394Z" fill="#FBBC04"/>
<path d="M11.0719 11.9672C11 12.1639 11 12.4262 11 12.6885V31.3771C11 31.6394 11 31.8361 11.0719 32.0984L22.5689 21.8033L11.0719 11.9672Z" fill="#4285F4"/>
<path d="M22.2095 22L27.958 16.8197L15.5269 10.3934C15.0957 10.1311 14.5209 10 13.946 10C12.5808 10 11.3592 10.8525 11.0718 11.9672L22.2095 22Z" fill="#34A853"/>
</svg>
