<svg width="44" height="44" viewBox="0 0 44 44" fill="none" xmlns="http://www.w3.org/2000/svg">
<rect width="44" height="44" rx="8" fill="#0077FF"/>
<path fill-rule="evenodd" clip-rule="evenodd" d="M31.8238 28.1181L29.384 27.5172C29.0902 27.434 28.8827 27.1734 28.8723 26.8705L28.5678 18.0163C28.4797 16.8445 27.5974 15.9123 26.6755 15.6379C26.6237 15.6225 26.5684 15.6432 26.5378 15.6871C26.5066 15.7318 26.5187 15.7936 26.5621 15.8267C26.7898 16.0005 27.4164 16.5676 27.4164 17.5457L27.4146 29.1223C27.4146 30.2401 26.3433 31.0599 25.2384 30.7878L22.7608 30.1775C22.4862 30.0828 22.2953 29.8305 22.2853 29.5395L21.9809 20.6848C21.8928 19.5129 21.0105 18.5809 20.0886 18.3063C20.0368 18.291 19.9815 18.3117 19.9509 18.3556C19.9198 18.4003 19.9318 18.462 19.9752 18.4952C20.2029 18.669 20.8295 19.236 20.8295 20.2142L20.8277 29.8638L20.8291 29.864V31.7918C20.8291 32.9096 19.7577 33.7295 18.6528 33.4573L11.655 31.7337C10.6821 31.4941 10 30.636 10 29.6518V18.0572C10 16.9394 11.0713 16.1196 12.1762 16.3917L16.5856 17.4778V15.3877C16.5856 14.2699 17.6569 13.45 18.7618 13.7222L23.1709 14.8082V12.718C23.1709 11.6002 24.2422 10.7803 25.3472 11.0525L32.345 12.7761C33.3179 13.0158 34 13.8738 34 14.858V26.4527C34 27.5704 32.9287 28.3903 31.8238 28.1181Z" fill="white"/>
</svg>
