<svg width="44" height="44" viewBox="0 0 44 44" fill="none" xmlns="http://www.w3.org/2000/svg">
<rect width="44" height="44" rx="8" fill="#1C232B"/>
<path d="M34.6982 13.4091C36.1874 13.4091 37.3954 12.1982 37.3954 10.7046C37.3954 9.21088 36.1874 8 34.6982 8C33.208 8 32 9.21088 32 10.7046C32 12.1982 33.208 13.4091 34.6982 13.4091Z" fill="#F41240"/>
<path d="M27.5611 13H10V31.9474H14.8878V25.783H24.2536L28.5269 31.9474H34L29.2878 25.7547C30.7513 25.5275 31.8049 24.9877 32.4488 24.1355C33.0927 23.2834 33.4147 21.9198 33.4147 20.1017V18.6814C33.4147 17.6019 33.2977 16.7497 33.0927 16.0963C32.8878 15.443 32.5366 14.8748 32.0391 14.3635C31.5122 13.8806 30.9269 13.5397 30.2244 13.3125C29.522 13.1136 28.6438 13 27.5611 13ZM26.7708 21.6073H14.8878V17.1758H26.7708C27.444 17.1758 27.9122 17.2894 28.1464 17.4883C28.3805 17.6871 28.5269 18.0564 28.5269 18.5962V20.187C28.5269 20.7552 28.3805 21.1244 28.1464 21.3232C27.9122 21.522 27.444 21.6073 26.7708 21.6073Z" fill="white"/>
</svg>
