<svg width="44" height="44" viewBox="0 0 44 44" fill="none" xmlns="http://www.w3.org/2000/svg">
<rect width="44" height="44" rx="8" fill="url(#paint0_linear_506_40455)"/>
<path d="M14.892 23.6082L17.5021 30.8326C17.5021 30.8326 17.8284 31.5086 18.1779 31.5086C18.5273 31.5086 23.7246 26.1017 23.7246 26.1017L29.5042 14.9385L14.9851 21.7433L14.892 23.6082Z" fill="#C8DAEA"/>
<path d="M18.3527 25.4609L17.8517 30.786C17.8517 30.786 17.6419 32.4177 19.2732 30.786C20.9045 29.1544 22.466 27.8962 22.466 27.8962" fill="#A9C6D8"/>
<path d="M14.9391 23.866L9.57004 22.1166C9.57004 22.1166 8.92837 21.8563 9.13499 21.2659C9.17752 21.1442 9.26332 21.0406 9.51999 20.8626C10.7096 20.0334 31.5394 12.5466 31.5394 12.5466C31.5394 12.5466 32.1276 12.3484 32.4744 12.4802C32.5602 12.5068 32.6374 12.5557 32.6982 12.6219C32.7589 12.6881 32.8009 12.7692 32.82 12.857C32.8575 13.012 32.8732 13.1715 32.8666 13.3309C32.8649 13.4688 32.8482 13.5966 32.8356 13.7969C32.7087 15.8439 28.9123 31.1207 28.9123 31.1207C28.9123 31.1207 28.6851 32.0146 27.8713 32.0452C27.6713 32.0517 27.472 32.0178 27.2854 31.9456C27.0988 31.8734 26.9286 31.7644 26.785 31.625C25.188 30.2513 19.6682 26.5417 18.4485 25.7259C18.421 25.7071 18.3978 25.6827 18.3806 25.6542C18.3633 25.6258 18.3523 25.5939 18.3484 25.5609C18.3314 25.4749 18.4249 25.3684 18.4249 25.3684C18.4249 25.3684 28.0363 16.8251 28.292 15.9282C28.3118 15.8587 28.237 15.8244 28.1366 15.8549C27.4982 16.0897 16.4318 23.0782 15.2105 23.8495C15.1226 23.8761 15.0296 23.8817 14.9391 23.866Z" fill="white"/>
<defs>
<linearGradient id="paint0_linear_506_40455" x1="22" y1="44" x2="22" y2="0" gradientUnits="userSpaceOnUse">
<stop stop-color="#1D93D2"/>
<stop offset="1" stop-color="#38B0E3"/>
</linearGradient>
</defs>
</svg>
