<svg width="44" height="44" viewBox="0 0 44 44" fill="none" xmlns="http://www.w3.org/2000/svg">
<rect width="44" height="44" rx="8" fill="black"/>
<path d="M20.2963 13.9169V13.0907C20.0165 13.0517 19.7343 13.0316 19.4518 13.0308C15.9965 13.0308 13.1855 15.84 13.1855 19.296C13.1857 20.3032 13.4289 21.2955 13.8943 22.1887C14.3598 23.0819 15.0339 23.8497 15.8594 24.4268C14.8163 23.3071 14.1975 21.8071 14.1975 20.1601C14.1956 18.5286 14.8329 16.9612 15.973 15.7941C17.1131 14.627 18.6651 13.9531 20.2963 13.9169Z" fill="#25F4EE"/>
<path d="M20.4431 23.0394C21.9848 23.0394 23.2604 21.7956 23.3176 20.2678L23.3305 6.64301H25.8013L25.7975 6.6227C25.7445 6.33772 25.7176 6.04848 25.7173 5.75861H22.3137L22.3083 19.403C22.2916 19.8862 22.1526 20.3572 21.9041 20.7719C21.6556 21.1866 21.3059 21.5315 20.8878 21.7741C20.4696 22.0167 19.9967 22.1492 19.5133 22.1591C19.03 22.169 18.552 22.0561 18.1243 21.8308C18.6445 22.55 19.4893 23.0394 20.4431 23.0394Z" fill="#25F4EE"/>
<path d="M30.4548 11.2952V10.4961C29.5387 10.4967 28.6423 10.2301 27.8754 9.72913C28.5367 10.4886 29.435 11.0769 30.4548 11.2952Z" fill="#25F4EE"/>
<path d="M27.8755 9.72908C27.1239 8.86904 26.7101 7.76547 26.7108 6.62335H25.7831C26.0234 7.92 26.809 9.03354 27.8755 9.72908Z" fill="#FE2C55"/>
<path d="M19.4518 16.4083C17.8739 16.4083 16.5712 17.7182 16.5712 19.2961C16.5712 20.3951 17.2142 21.3499 18.1244 21.8291C17.8158 21.4024 17.6312 20.8986 17.5909 20.3735C17.5506 19.8484 17.6563 19.3224 17.8962 18.8535C18.1362 18.3847 18.501 17.9913 18.9505 17.7169C19.3999 17.4424 19.9165 17.2975 20.4432 17.2981C20.7303 17.2989 21.0157 17.3436 21.2893 17.4308V13.9548C21.009 13.9153 20.7263 13.8948 20.4432 13.8936C20.3938 13.8936 20.3447 13.8963 20.2953 13.8973H20.2824L20.2739 16.5288C20.0079 16.446 19.7305 16.4053 19.4518 16.4083Z" fill="#FE2C55"/>
<path d="M30.4548 11.2546L30.4389 11.2515V13.88C28.7364 13.8764 27.078 13.3379 25.6981 12.3407V19.2961C25.6991 20.1168 25.5382 20.9296 25.2247 21.688C24.9112 22.4464 24.4511 23.1356 23.871 23.716C23.2908 24.2965 22.6018 24.7568 21.8435 25.0706C21.0852 25.3845 20.2725 25.5457 19.4518 25.5451C18.1166 25.5451 16.8795 25.1413 15.8607 24.4282C16.4459 25.0587 17.1549 25.5617 17.9434 25.9055C18.7319 26.2494 19.5829 26.4267 20.4431 26.4264C23.8985 26.4264 26.7098 23.6172 26.7098 20.1602V13.2413C28.0896 14.2335 29.7467 14.7663 31.4462 14.7644V11.3598C31.113 11.3596 30.7807 11.3243 30.4548 11.2546Z" fill="#FE2C55"/>
<path d="M25.7184 19.296V12.3772C27.0982 13.3695 28.7553 13.9023 30.4548 13.9003V11.2545C29.4526 11.0385 28.5475 10.5032 27.8754 9.72908C27.3372 9.3788 26.8756 8.92295 26.5186 8.38912C26.1616 7.8553 25.9167 7.25459 25.7986 6.62335H23.3062L23.3008 20.2678C23.2798 20.8636 23.0729 21.438 22.709 21.9103C22.3452 22.3827 21.8427 22.7293 21.2719 22.9017C20.7011 23.074 20.0907 23.0634 19.5262 22.8714C18.9618 22.6793 18.4716 22.3155 18.1243 21.8308C17.5574 21.534 17.1063 21.0557 16.8433 20.4723C16.5802 19.889 16.5204 19.2343 16.6732 18.6129C16.8261 17.9915 17.183 17.4393 17.6867 17.0446C18.1904 16.6499 18.8118 16.4355 19.4518 16.4357C19.7383 16.4366 20.0231 16.4813 20.2962 16.568V13.8972C16.9092 13.9764 14.1779 16.7542 14.1779 20.1588C14.1766 21.7435 14.7782 23.2693 15.8607 24.4268C16.9119 25.1668 18.1662 25.5636 19.4518 25.5626C22.9071 25.5626 25.7184 22.7514 25.7184 19.296Z" fill="white"/>
<path d="M5.83716 30.1532H11.3277L10.8237 31.724H9.39913V37.5317H7.62423V31.7233L5.83851 31.7267L5.83716 30.1532Z" fill="white"/>
<path d="M20.3217 30.1532H25.9401L25.4358 31.724H23.8873V37.5317H22.1087V31.7233L20.323 31.7267L20.3217 30.1532Z" fill="white"/>
<path d="M11.6625 32.5001H13.4228L13.4208 37.531H11.673L11.6625 32.5001Z" fill="white"/>
<path d="M14.121 30.1326H15.881V33.5683L17.6234 31.8584H19.7218L17.5174 33.9971L19.9882 37.5307H18.0481L16.4005 35.0802L15.8793 35.5879V37.5317H14.1193L14.121 30.1326Z" fill="white"/>
<path d="M32.7516 30.1326H34.5116V33.5683L36.2543 31.8584H38.3528L36.1477 33.9975L38.6165 37.531H36.6791L35.0315 35.0805L34.5102 35.5882V37.532H32.7502L32.7516 30.1326Z" fill="white"/>
<path d="M12.5421 31.9251C13.0315 31.9251 13.4282 31.5284 13.4282 31.039C13.4282 30.5496 13.0315 30.1529 12.5421 30.1529C12.0527 30.1529 11.656 30.5496 11.656 31.039C11.656 31.5284 12.0527 31.9251 12.5421 31.9251Z" fill="white"/>
<path d="M25.7268 34.5194C25.7272 33.7617 26.013 33.0321 26.5274 32.4758C27.0418 31.9195 27.7469 31.5775 28.5022 31.5179C28.4243 31.5118 28.3049 31.5078 28.2253 31.5078C27.4264 31.5078 26.6602 31.8251 26.0953 32.39C25.5304 32.955 25.213 33.7211 25.213 34.5201C25.213 35.319 25.5304 36.0852 26.0953 36.6501C26.6602 37.215 27.4264 37.5324 28.2253 37.5324C28.3049 37.5324 28.4243 37.5283 28.5022 37.5222C27.7467 37.4626 27.0414 37.1204 26.527 36.5638C26.0125 36.0073 25.7268 35.2773 25.7268 34.5194Z" fill="#25F4EE"/>
<path d="M29.1754 31.5078C29.0952 31.5078 28.975 31.5118 28.8965 31.5179C29.6485 31.5819 30.3491 31.9258 30.8597 32.4816C31.3703 33.0374 31.6536 33.7647 31.6536 34.5194C31.6536 35.2741 31.3703 36.0014 30.8597 36.5572C30.3491 37.113 29.6485 37.4569 28.8965 37.5209C28.975 37.527 29.0952 37.531 29.1754 37.531C29.9743 37.531 30.7405 37.2137 31.3054 36.6487C31.8703 36.0838 32.1877 35.3176 32.1877 34.5187C32.1877 33.7198 31.8703 32.9536 31.3054 32.3887C30.7405 31.8238 29.9743 31.5064 29.1754 31.5064V31.5078Z" fill="#FE2C55"/>
<path d="M28.6975 31.5078C28.1017 31.5078 27.5193 31.6844 27.0239 32.0154C26.5286 32.3464 26.1425 32.8169 25.9145 33.3673C25.6865 33.9177 25.6268 34.5234 25.7431 35.1077C25.8593 35.6921 26.1462 36.2288 26.5675 36.6501C26.9887 37.0714 27.5255 37.3583 28.1098 37.4745C28.6941 37.5907 29.2998 37.5311 29.8503 37.3031C30.4007 37.0751 30.8711 36.689 31.2021 36.1936C31.5331 35.6982 31.7098 35.1158 31.7098 34.5201C31.7098 33.7211 31.3924 32.955 30.8275 32.39C30.2626 31.8251 29.4964 31.5078 28.6975 31.5078ZM28.6975 35.9832C28.4079 35.9832 28.1248 35.8973 27.884 35.7364C27.6432 35.5755 27.4555 35.3469 27.3447 35.0793C27.2339 34.8117 27.2049 34.5173 27.2615 34.2333C27.318 33.9492 27.4575 33.6883 27.6623 33.4836C27.8671 33.2788 28.128 33.1394 28.412 33.083C28.6961 33.0265 28.9905 33.0555 29.258 33.1664C29.5256 33.2773 29.7542 33.465 29.9151 33.7058C30.0759 33.9467 30.1617 34.2298 30.1617 34.5194C30.1617 34.7116 30.1238 34.902 30.0502 35.0797C29.9766 35.2573 29.8688 35.4187 29.7328 35.5546C29.5968 35.6905 29.4354 35.7984 29.2578 35.8719C29.0801 35.9454 28.8898 35.9833 28.6975 35.9832Z" fill="white"/>
</svg>
