<svg width="44" height="44" viewBox="0 0 44 44" fill="none" xmlns="http://www.w3.org/2000/svg">
<rect width="44" height="44" rx="8" fill="#212121"/>
<path fill-rule="evenodd" clip-rule="evenodd" d="M24.4014 10.5291C26.6652 9.34934 29.468 10.2087 30.6594 12.449C31.8508 14.6893 30.9817 17.4608 28.7179 18.6406L26.8566 19.6191C28.4601 19.6777 29.9895 20.5586 30.7903 22.0645C31.9817 24.3047 31.1145 27.0763 28.8488 28.256L18.9228 33.4709C16.6591 34.6507 13.8563 33.7913 12.6649 31.551C11.4734 29.3107 12.3426 26.5392 14.6063 25.3594L16.4677 24.3809C14.8641 24.3223 13.3348 23.4414 12.534 21.9355C11.3426 19.6953 12.2117 16.9237 14.4755 15.744L24.4014 10.5291ZM19.0439 18.3066L25.0518 22.0156L19.0439 25.7071V18.3066Z" fill="white"/>
</svg>
