<svg width="44" height="44" viewBox="0 0 44 44" fill="none" xmlns="http://www.w3.org/2000/svg">
<rect width="44" height="44" rx="8" fill="#212121"/>
<path d="M33.4982 16.6236C33.2216 15.5904 32.4096 14.7784 31.3763 14.5018C29.5055 14 22 14 22 14C22 14 14.4946 14 12.6236 14.5018C11.5904 14.7784 10.7784 15.5904 10.5018 16.6236C10 18.4946 10 22.4004 10 22.4004C10 22.4004 10 26.3062 10.5018 28.1772C10.7784 29.2104 11.5904 30.0224 12.6236 30.2989C14.4946 30.8008 22 30.8008 22 30.8008C22 30.8008 29.5055 30.8008 31.3763 30.2989C32.4096 30.0224 33.2216 29.2104 33.4982 28.1772C34 26.3062 34 22.4004 34 22.4004C34 22.4004 33.998 18.4946 33.4982 16.6236Z" fill="white"/>
<path d="M19.5977 26.0003L25.8328 22.4007L19.5977 18.8011V26.0003Z" fill="#212121"/>
</svg>
