<svg width="44" height="44" viewBox="0 0 44 44" fill="none" xmlns="http://www.w3.org/2000/svg">
<rect width="44" height="44" rx="8" fill="#212121"/>
<path d="M14.652 10H16.092L17.08 13.702L17.996 10H19.45L17.785 15.505V19.262H16.354V15.505L14.652 10ZM21.246 12.373C20.127 12.373 19.385 13.113 19.385 14.208V17.557C19.385 18.761 20.014 19.388 21.246 19.388C22.268 19.388 23.072 18.705 23.072 17.557V14.208C23.072 13.139 22.275 12.373 21.246 12.373ZM21.777 17.5C21.777 17.872 21.587 18.146 21.245 18.146C20.894 18.146 20.691 17.859 20.691 17.5V14.321C20.691 13.947 20.863 13.67 21.22 13.67C21.61 13.67 21.777 13.939 21.777 14.321V17.5ZM26.506 12.43V17.616C26.351 17.81 26.006 18.128 25.759 18.128C25.488 18.128 25.421 17.942 25.421 17.668V12.43H24.151V18.14C24.151 18.815 24.357 19.36 25.038 19.36C25.422 19.36 25.956 19.16 26.506 18.507V19.261H27.776V12.43H26.506ZM28.709 26.288C28.261 26.288 28.168 26.603 28.168 27.051V27.71H29.237V27.05C29.238 26.61 29.145 26.288 28.709 26.288ZM24.006 26.328C23.922 26.371 23.839 26.437 23.756 26.526V30.581C23.855 30.687 23.95 30.763 24.043 30.81C24.24 30.91 24.528 30.917 24.662 30.743C24.732 30.651 24.767 30.502 24.767 30.294V26.935C24.767 26.715 24.724 26.549 24.638 26.435C24.491 26.242 24.218 26.221 24.006 26.328ZM28.833 21.133C26.229 20.956 17.767 20.956 15.167 21.133C12.353 21.325 12.021 23.025 12 27.5C12.021 31.967 12.35 33.675 15.167 33.867C17.767 34.044 26.229 34.044 28.833 33.867C31.647 33.675 31.979 31.974 32 27.5C31.979 23.033 31.65 21.325 28.833 21.133ZM16.509 31.819H15.146V24.279H13.736V22.999H17.918V24.279H16.508L16.509 31.819ZM21.355 31.819H20.145V31.101C19.922 31.366 19.69 31.568 19.449 31.706C18.797 32.08 17.902 32.071 17.902 30.751V25.313H19.111V30.301C19.111 30.563 19.174 30.739 19.433 30.739C19.669 30.739 19.997 30.436 20.144 30.252V25.313H21.354L21.355 31.819ZM26.012 30.471C26.012 31.276 25.711 31.902 24.906 31.902C24.463 31.902 24.094 31.74 23.757 31.319V31.819H22.536V22.999H23.757V25.839C24.03 25.506 24.401 25.231 24.833 25.231C25.719 25.231 26.013 25.98 26.013 26.862V30.471H26.012ZM30.483 28.719H28.169V29.947C28.169 30.435 28.211 30.857 28.697 30.857C29.208 30.857 29.238 30.513 29.238 29.947V29.495H30.483V29.984C30.483 31.237 29.945 31.997 28.67 31.997C27.515 31.997 26.924 31.155 26.924 29.984V27.063C26.924 25.934 27.67 25.149 28.761 25.149C29.922 25.149 30.482 25.887 30.482 27.063L30.483 28.719Z" fill="white"/>
</svg>
