<svg width="32" height="32" viewBox="0 0 32 32" fill="none" xmlns="http://www.w3.org/2000/svg">
<g clip-path="url(#clip0_212_606)">
<path d="M23.3874 16C25.79 15.5248 28.154 14.3506 29.5964 12.8075L31.234 11.0557L28.8794 10.6009C26.8055 10.2003 24.2028 10.64 21.9797 11.6678C23.6442 9.8711 24.8666 7.53162 25.1265 5.43546L25.4217 3.0557L23.2495 4.07174C21.3362 4.9667 19.489 6.85216 18.2945 8.99037C18.585 6.55851 18.1989 3.94731 17.177 2.09867L16.017 0L14.8569 2.09867C13.8351 3.94731 13.4489 6.55851 13.7394 8.99037C12.545 6.85216 10.6978 4.96662 8.7845 4.07174L6.61237 3.0557L6.90744 5.43546C7.16738 7.53162 8.38978 9.8711 10.0542 11.6678C7.83119 10.64 5.2284 10.2004 3.1545 10.6009L0.800049 11.0557L2.43755 12.8075C3.87994 14.3506 6.24392 15.5248 8.64659 16C6.244 16.4752 3.87994 17.6493 2.43755 19.1925L0.800049 20.9443L3.1545 21.399C5.2284 21.7997 7.83112 21.36 10.0542 20.3322C8.38978 22.129 7.16738 24.4683 6.90744 26.5645L6.61237 28.9442L8.78442 27.9283C10.6977 27.0333 12.5449 25.1478 13.7394 23.0096C13.4488 25.4414 13.835 28.0526 14.8568 29.9013L16.0169 32L17.1769 29.9013C18.1988 28.0526 18.5849 25.4414 18.2945 23.0096C19.4889 25.1478 21.3361 27.0334 23.2493 27.9283L25.4213 28.9442L25.1263 26.5645C24.8663 24.4683 23.6439 22.129 21.9796 20.3322C24.2026 21.36 26.8053 21.7995 28.8793 21.399L31.2337 20.9443L29.5962 19.1925C28.154 17.6494 25.79 16.4752 23.3874 16Z" fill="currentColor"/>
</g>
<defs>
<clipPath id="clip0_212_606">
<rect width="32" height="32" fill="white"/>
</clipPath>
</defs>
</svg>
