<svg width="32" height="32" viewBox="0 0 32 32" fill="none" xmlns="http://www.w3.org/2000/svg">
<g clip-path="url(#clip0_212_607)">
<path fill-rule="evenodd" clip-rule="evenodd" d="M29.5964 12.8075C28.154 14.3506 25.79 15.5248 23.3874 16C25.79 16.4752 28.154 17.6494 29.5962 19.1925L31.2337 20.9443L28.8793 21.399C26.8053 21.7995 24.2026 21.36 21.9796 20.3322C23.6439 22.129 24.8663 24.4683 25.1263 26.5645L25.4213 28.9442L23.2493 27.9283C21.3361 27.0334 19.4889 25.1478 18.2945 23.0096C18.5849 25.4414 18.1988 28.0526 17.1769 29.9013L16.0169 32L14.8568 29.9013C13.835 28.0526 13.4488 25.4414 13.7394 23.0096C12.5449 25.1478 10.6977 27.0333 8.78442 27.9283L6.61237 28.9442L6.90744 26.5645C7.16738 24.4683 8.38978 22.129 10.0542 20.3322C7.83112 21.36 5.2284 21.7997 3.1545 21.399L0.800049 20.9443L2.43755 19.1925C3.87994 17.6493 6.244 16.4752 8.64659 16C6.24392 15.5248 3.87994 14.3506 2.43755 12.8075L0.800049 11.0557L3.1545 10.6009C5.2284 10.2004 7.8312 10.64 10.0542 11.6678C8.38978 9.8711 7.16738 7.53162 6.90744 5.43546L6.61237 3.0557L8.7845 4.07174C10.6978 4.96662 12.545 6.85216 13.7394 8.99037C13.4489 6.55851 13.8351 3.94731 14.8569 2.09867L16.017 0L17.177 2.09867C18.1989 3.94731 18.585 6.55851 18.2945 8.99037C19.489 6.85216 21.3362 4.9667 23.2495 4.07174L25.4217 3.0557L25.1265 5.43546C24.8666 7.53162 23.6442 9.8711 21.9797 11.6678C24.2028 10.64 26.8055 10.2003 28.8794 10.6009L31.234 11.0557L29.5964 12.8075ZM13.0007 18.9914C14.6453 20.6358 17.3116 20.6358 18.9561 18.9914C20.6005 17.3469 20.6005 14.6805 18.9561 13.036C17.3116 11.3915 14.6453 11.3915 13.0007 13.036C11.3562 14.6805 11.3562 17.3469 13.0007 18.9914Z" fill="currentColor"/>
</g>
<defs>
<clipPath id="clip0_212_607">
<rect width="32" height="32" fill="white"/>
</clipPath>
</defs>
</svg>
